<svg xmlns="http://www.w3.org/2000/svg" xmlns:xlink="http://www.w3.org/1999/xlink" width="148" height="133" viewBox="0 0 148 133">
    <defs>
        <path id="prefix__a" d="M44.5 6.5c29.371-14.356 68.47 1.047 84 12 15.53 10.953 27.998 49.495 6.371 76.225-14.417 17.821-44.27 26.686-89.558 26.596C15.676 117.503.776 104.066.613 81.009.368 46.424 15.129 20.856 44.5 6.5z"/>
    </defs>
    <g fill="none" fill-rule="evenodd" transform="translate(0 2)">
        <g transform="rotate(180 73.5 64)">
            <use fill="#9013FE" xlink:href="#prefix__a"/>
            <ellipse cx="44.371" cy="42.391" stroke="#FFF" stroke-opacity=".51" stroke-width="65" opacity=".49" rx="12.75" ry="12.724"/>
        </g>
        <circle cx="99" cy="84" r="5" fill="#FFF"/>
        <g transform="translate(7)">
            <rect width="34" height="34" fill="#FF1F9D" stroke="#1927D3" stroke-width="3" rx="6"/>
            <path fill="#1927D3" d="M15 34H19V67H15zM34 15H73V18H34z"/>
            <rect width="34" height="34" x="74" fill="#FFF" stroke="#1927D3" stroke-width="3" rx="6"/>
            <rect width="34" height="34" y="67" fill="#FFF" stroke="#1927D3" stroke-width="3" rx="6"/>
            <path fill="#1927D3" fill-rule="nonzero" d="M32.397 30.09l.757.653 33.404 28.849 3.922-4.54L76.5 69.5l-15.17-3.853 3.92-4.541-33.404-28.85-.756-.653 1.307-1.513zM60.84 77.073l13.91 7.177-14.087 6.822.075-6-25.5-.322-1-.013.025-2 1 .013 25.5.322.077-5.999zM92.5 33.5v19h6l-7 14-7-14h6v-19h2z"/>
        </g>
        <rect width="13" height="13" x="90" y="92" fill="#F8E71C" rx="2"/>
        <rect width="13" height="13" x="106" y="82" fill="#50E3C2" rx="2"/>
    </g>
</svg>
