<svg xmlns="http://www.w3.org/2000/svg" width="30" height="25" viewBox="0 0 30 25">
    <path fill="#FFF" d="M30 2.898c-1.18.509-2.36.827-3.54.954 1.332-.8 2.233-1.932 2.703-3.394-1.219.724-2.52 1.22-3.903 1.487C24.042.65 22.545 0 20.768 0c-1.7 0-3.15.6-4.35 1.802-1.2 1.201-1.799 2.653-1.799 4.357 0 .457.051.928.153 1.41-2.513-.126-4.87-.759-7.072-1.896-2.202-1.138-4.07-2.654-5.606-4.548-.559.953-.838 1.99-.838 3.108 0 1.055.248 2.034.743 2.937.495.902 1.161 1.633 1.999 2.192-.99-.038-1.917-.299-2.78-.782v.077c0 1.487.467 2.793 1.4 3.918.932 1.125 2.11 1.834 3.53 2.126-.533.14-1.072.21-1.618.21-.355 0-.742-.032-1.16-.095.393 1.233 1.116 2.246 2.17 3.041 1.052.795 2.245 1.204 3.578 1.23-2.233 1.754-4.778 2.631-7.633 2.631-.546 0-1.04-.025-1.485-.076 2.855 1.843 6.003 2.765 9.442 2.765 2.182 0 4.232-.346 6.148-1.04 1.916-.692 3.553-1.62 4.911-2.783 1.358-1.163 2.529-2.501 3.512-4.014.983-1.513 1.716-3.092 2.199-4.738.482-1.647.723-3.296.723-4.949 0-.356-.006-.623-.02-.8C28.123 5.205 29.15 4.143 30 2.897z"/>
</svg>
